<svg xmlns="http://www.w3.org/2000/svg" version="1.1" xmlns:xlink="http://www.w3.org/1999/xlink" xmlns:svgjs="http://svgjs.dev/svgjs" width="1440" height="1403" preserveAspectRatio="none" viewBox="0 0 1440 1403"><g mask="url(&quot;#SvgjsMask1409&quot;)" fill="none"><rect width="1440" height="1403" x="0" y="0" fill="#0e2a47"></rect><path d="M 0,548 C 36,461.4 108,96 180,115 C 252,134 288,629.6 360,643 C 432,656.4 468,222.2 540,182 C 612,141.8 648,414 720,442 C 792,470 828,278.4 900,322 C 972,365.6 1008,670.2 1080,660 C 1152,649.8 1188,288.8 1260,271 C 1332,253.2 1404,511 1440,571L1440 1403L0 1403z" fill="#184a7e"></path><path d="M 0,1177 C 36,1118.6 108,869.6 180,885 C 252,900.4 288,1289.4 360,1254 C 432,1218.6 468,724.2 540,708 C 612,691.8 648,1150.2 720,1173 C 792,1195.8 828,789 900,822 C 972,855 1008,1356.4 1080,1338 C 1152,1319.6 1188,743 1260,730 C 1332,717 1404,1164.4 1440,1273L1440 1403L0 1403z" fill="#2264ab"></path></g><defs><mask id="SvgjsMask1409"><rect width="1440" height="1403" fill="#ffffff"></rect></mask></defs></svg>