<svg xmlns="http://www.w3.org/2000/svg" version="1.1" xmlns:xlink="http://www.w3.org/1999/xlink" xmlns:svgjs="http://svgjs.dev/svgjs" width="1440" height="1000" preserveAspectRatio="none" viewBox="0 0 1440 1000"><g mask="url(&quot;#SvgjsMask1036&quot;)" fill="none"><rect width="1440" height="1000" x="0" y="0" fill="#0e2a47"></rect><path d="M 0,92 C 28.8,150.4 86.4,400.6 144,384 C 201.6,367.4 230.4,31 288,9 C 345.6,-13 374.4,246.6 432,274 C 489.6,301.4 518.4,116 576,146 C 633.6,176 662.4,426 720,424 C 777.6,422 806.4,151.6 864,136 C 921.6,120.4 950.4,340.4 1008,346 C 1065.6,351.6 1094.4,159.8 1152,164 C 1209.6,168.2 1238.4,389.4 1296,367 C 1353.6,344.6 1411.2,115 1440,52L1440 1000L0 1000z" fill="#184a7e"></path><path d="M 0,509 C 57.6,559.6 172.8,732.2 288,762 C 403.2,791.8 460.8,649.4 576,658 C 691.2,666.6 748.8,811.8 864,805 C 979.2,798.2 1036.8,618.8 1152,624 C 1267.2,629.2 1382.4,789.6 1440,831L1440 1000L0 1000z" fill="#2264ab"></path></g><defs><mask id="SvgjsMask1036"><rect width="1440" height="1000" fill="#ffffff"></rect></mask></defs></svg>